<?xml version="1.0" encoding="UTF-8"?>
<svg xmlns="http://www.w3.org/2000/svg" xmlns:xlink="http://www.w3.org/1999/xlink" width="1920" height="1080" viewBox="0 0 1920 1080">
<defs>
<g>
<g id="glyph-0-0">
<path d="M 3.246094 0 L 0.574219 0 L 0.574219 -0.527344 L 1.667969 -0.527344 L 1.667969 -3.632812 L 0.648438 -3.078125 L 0.4375 -3.5625 L 1.792969 -4.273438 L 2.296875 -4.273438 L 2.296875 -0.527344 L 3.246094 -0.527344 Z "/>
</g>
<g id="glyph-0-1">
</g>
<g id="glyph-1-0">
<path d="M 3.28125 0 L 0.476562 0 L 0.476562 -0.507812 L 1.578125 -1.601562 C 1.757812 -1.78125 1.90625 -1.933594 2.019531 -2.0625 C 2.132812 -2.195312 2.21875 -2.3125 2.28125 -2.421875 C 2.34375 -2.527344 2.386719 -2.628906 2.410156 -2.722656 C 2.429688 -2.820312 2.441406 -2.921875 2.441406 -3.035156 C 2.441406 -3.136719 2.425781 -3.238281 2.398438 -3.332031 C 2.371094 -3.425781 2.328125 -3.507812 2.269531 -3.582031 C 2.210938 -3.652344 2.132812 -3.707031 2.039062 -3.75 C 1.949219 -3.792969 1.835938 -3.8125 1.707031 -3.8125 C 1.527344 -3.8125 1.363281 -3.773438 1.214844 -3.691406 C 1.066406 -3.609375 0.929688 -3.507812 0.808594 -3.378906 L 0.496094 -3.753906 C 0.65625 -3.921875 0.839844 -4.058594 1.050781 -4.160156 C 1.257812 -4.261719 1.503906 -4.3125 1.78125 -4.3125 C 1.96875 -4.3125 2.140625 -4.285156 2.296875 -4.226562 C 2.453125 -4.171875 2.585938 -4.089844 2.699219 -3.984375 C 2.8125 -3.878906 2.898438 -3.746094 2.960938 -3.59375 C 3.023438 -3.441406 3.054688 -3.265625 3.054688 -3.074219 C 3.054688 -2.910156 3.03125 -2.757812 2.988281 -2.621094 C 2.945312 -2.480469 2.878906 -2.34375 2.792969 -2.207031 C 2.703125 -2.066406 2.59375 -1.925781 2.460938 -1.777344 C 2.324219 -1.628906 2.167969 -1.46875 1.984375 -1.292969 L 1.214844 -0.539062 L 3.28125 -0.539062 Z "/>
</g>
</g>
</defs>
<g fill="rgb(100%, 100%, 100%)" fill-opacity="1">
<use xlink:href="#glyph-0-0" x="30" y="24.951172"/>
<use xlink:href="#glyph-0-1" x="34" y="24.951172"/>
</g>
<g fill="rgb(100%, 100%, 100%)" fill-opacity="1">
<use xlink:href="#glyph-1-0" x="30" y="33.951172"/>
</g>
</svg>
