<?xml version="1.0" encoding="UTF-8"?>
<svg xmlns="http://www.w3.org/2000/svg" xmlns:xlink="http://www.w3.org/1999/xlink" width="1920" height="1080" viewBox="0 0 1920 1080">
<defs>
<g>
<g id="glyph-0-0">
<path d="M 2.476562 1.367188 C 1.476562 0.441406 0.976562 -0.582031 0.976562 -1.707031 C 0.976562 -1.96875 1.003906 -2.230469 1.054688 -2.492188 C 1.109375 -2.753906 1.195312 -3.015625 1.3125 -3.277344 C 1.433594 -3.539062 1.589844 -3.804688 1.78125 -4.066406 C 1.976562 -4.328125 2.210938 -4.589844 2.492188 -4.847656 L 2.820312 -4.511719 C 1.976562 -3.679688 1.554688 -2.757812 1.554688 -1.746094 C 1.554688 -1.246094 1.664062 -0.761719 1.875 -0.296875 C 2.085938 0.167969 2.402344 0.605469 2.820312 1.019531 Z "/>
</g>
<g id="glyph-0-1">
</g>
<g id="glyph-1-0">
<path d="M 2.476562 1.367188 C 1.476562 0.441406 0.976562 -0.582031 0.976562 -1.707031 C 0.976562 -1.96875 1.003906 -2.230469 1.054688 -2.492188 C 1.109375 -2.753906 1.195312 -3.015625 1.3125 -3.277344 C 1.433594 -3.539062 1.589844 -3.804688 1.78125 -4.066406 C 1.976562 -4.328125 2.210938 -4.589844 2.492188 -4.847656 L 2.820312 -4.511719 C 1.976562 -3.679688 1.554688 -2.757812 1.554688 -1.746094 C 1.554688 -1.246094 1.664062 -0.761719 1.875 -0.296875 C 2.085938 0.167969 2.402344 0.605469 2.820312 1.019531 Z "/>
</g>
</g>
</defs>
<g fill="rgb(100%, 100%, 100%)" fill-opacity="1">
<use xlink:href="#glyph-0-0" x="30" y="24.951172"/>
<use xlink:href="#glyph-0-0" x="34" y="24.951172"/>
<use xlink:href="#glyph-0-0" x="38" y="24.951172"/>
<use xlink:href="#glyph-0-0" x="42" y="24.951172"/>
<use xlink:href="#glyph-0-0" x="46" y="24.951172"/>
<use xlink:href="#glyph-0-0" x="50" y="24.951172"/>
<use xlink:href="#glyph-0-0" x="54" y="24.951172"/>
<use xlink:href="#glyph-0-0" x="58" y="24.951172"/>
<use xlink:href="#glyph-0-0" x="62" y="24.951172"/>
<use xlink:href="#glyph-0-0" x="66" y="24.951172"/>
<use xlink:href="#glyph-0-0" x="70" y="24.951172"/>
<use xlink:href="#glyph-0-0" x="74" y="24.951172"/>
<use xlink:href="#glyph-0-0" x="78" y="24.951172"/>
<use xlink:href="#glyph-0-0" x="82" y="24.951172"/>
<use xlink:href="#glyph-0-0" x="86" y="24.951172"/>
<use xlink:href="#glyph-0-0" x="90" y="24.951172"/>
<use xlink:href="#glyph-0-0" x="94" y="24.951172"/>
<use xlink:href="#glyph-0-0" x="98" y="24.951172"/>
<use xlink:href="#glyph-0-0" x="102" y="24.951172"/>
<use xlink:href="#glyph-0-0" x="106" y="24.951172"/>
<use xlink:href="#glyph-0-0" x="110" y="24.951172"/>
<use xlink:href="#glyph-0-0" x="114" y="24.951172"/>
<use xlink:href="#glyph-0-0" x="118" y="24.951172"/>
<use xlink:href="#glyph-0-0" x="122" y="24.951172"/>
<use xlink:href="#glyph-0-0" x="126" y="24.951172"/>
<use xlink:href="#glyph-0-0" x="130" y="24.951172"/>
<use xlink:href="#glyph-0-0" x="134" y="24.951172"/>
<use xlink:href="#glyph-0-0" x="138" y="24.951172"/>
<use xlink:href="#glyph-0-0" x="142" y="24.951172"/>
<use xlink:href="#glyph-0-1" x="146" y="24.951172"/>
</g>
<g fill="rgb(100%, 100%, 100%)" fill-opacity="1">
<use xlink:href="#glyph-1-0" x="30" y="33.951172"/>
<use xlink:href="#glyph-1-0" x="34" y="33.951172"/>
<use xlink:href="#glyph-1-0" x="38" y="33.951172"/>
<use xlink:href="#glyph-1-0" x="42" y="33.951172"/>
<use xlink:href="#glyph-1-0" x="46" y="33.951172"/>
<use xlink:href="#glyph-1-0" x="50" y="33.951172"/>
<use xlink:href="#glyph-1-0" x="54" y="33.951172"/>
<use xlink:href="#glyph-1-0" x="58" y="33.951172"/>
<use xlink:href="#glyph-1-0" x="62" y="33.951172"/>
<use xlink:href="#glyph-1-0" x="66" y="33.951172"/>
<use xlink:href="#glyph-1-0" x="70" y="33.951172"/>
<use xlink:href="#glyph-1-0" x="74" y="33.951172"/>
<use xlink:href="#glyph-1-0" x="78" y="33.951172"/>
<use xlink:href="#glyph-1-0" x="82" y="33.951172"/>
<use xlink:href="#glyph-1-0" x="86" y="33.951172"/>
<use xlink:href="#glyph-1-0" x="90" y="33.951172"/>
<use xlink:href="#glyph-1-0" x="94" y="33.951172"/>
<use xlink:href="#glyph-1-0" x="98" y="33.951172"/>
<use xlink:href="#glyph-1-0" x="102" y="33.951172"/>
<use xlink:href="#glyph-1-0" x="106" y="33.951172"/>
<use xlink:href="#glyph-1-0" x="110" y="33.951172"/>
<use xlink:href="#glyph-1-0" x="114" y="33.951172"/>
<use xlink:href="#glyph-1-0" x="118" y="33.951172"/>
<use xlink:href="#glyph-1-0" x="122" y="33.951172"/>
<use xlink:href="#glyph-1-0" x="126" y="33.951172"/>
<use xlink:href="#glyph-1-0" x="130" y="33.951172"/>
<use xlink:href="#glyph-1-0" x="134" y="33.951172"/>
<use xlink:href="#glyph-1-0" x="138" y="33.951172"/>
<use xlink:href="#glyph-1-0" x="142" y="33.951172"/>
</g>
</svg>
